<?xml version="1.0" encoding="UTF-8" ?>
<svg    xmlns:dc="http://purl.org/dc/elements/1.1/" xmlns:cc="http://creativecommons.org/ns#" xmlns:rdf="http://www.w3.org/1999/02/22-rdf-syntax-ns#" xmlns:svg="http://www.w3.org/2000/svg" xmlns="http://www.w3.org/2000/svg" xmlns:sodipodi="http://sodipodi.sourceforge.net/DTD/sodipodi-0.dtd" xmlns:inkscape="http://www.inkscape.org/namespaces/inkscape" version="1.1"
 viewBox="0 0 100.0 100.0"
 id="svg2" 
 width="28.222222912098783mm"
 height="28.222222912098783mm">
 <defs  
  id="defs4" /> 
 <sodipodi:namedview 
  id="base" 
  pagecolor="#ffffff" 
  bordercolor="#666666" 
  borderopacity="1.0" 
 inkscape:pageopacity="0.0" 
 inkscape:pageshadow="2" 
  inkscape:document-units="mm" 
  inkscape:current-layer="layer1" 
 showgrid="false" 
  />
<g
inkscape:label="Slice 1"
inkscape:groupmode="layer" 
id="layer1" 
><g
id="g371">
  <polyline points="0.0,71.80785501985 0.0,71.957198323286 0.0,72.03186997500399 0.0,72.03186997500399 0.0,72.03186997500399 0.0,71.957198323286 0.0,71.80785501985 0.0,71.509168412978 0.0,71.135810154388 0.0,64.11667489289599 0.0,63.74331663430599 0.0,63.44463002743399 0.0,63.295286723998 0.0,63.22061507227999 0.0,63.22061507227999 0.0,63.22061507227999 0.0,63.22061507227999 0.0,63.295286723998 0.0,63.44463002743399 0.0,63.74331663430599 0.0,63.74331663430599 0.0,63.743316634306 0.0,63.22061507228 0.0,56.649509721096 0.0,56.649509721095995 0.0,56.649509721095995 0.0,56.649509721095995 0.0,63.22061507227999 0.0,63.74331663430599 0.0,64.11667489289599 0.0,71.135810154388 0.0,71.509168412978 0.0,72.03186997500399 0.0,78.22961706759799 0.0,89.057006566708 0.0,94.732052097276 0.0,103.543307 0.0,103.543307 0.0,94.732052097276 0.0,89.057006566708 0.0,89.057006566708 0.0,78.229617067598 0.0,72.031869975004 0.0,71.509168412978 0.0,71.509168412978 0.0,71.80785501985 " 
stroke="crimson" 
stroke-width="1" 
fill="none"
id="line0" />

</g>
</g>
<g
inkscape:label="Slice 2"
inkscape:groupmode="layer" 
id="layer2" 
><g
id="g372">
  <polyline points="34.64764639715201,71.509168412978 34.64764639715201,78.229617067598 34.64764639715201,89.057006566708 34.64764639715201,89.430364825298 34.64764639715201,94.35869383868601 31.81012363186801,94.35869383868601 26.50843635989001,89.430364825298 31.81012363186801,89.430364825298 31.81012363186801,89.057006566708 31.81012363186801,78.229617067598 31.81012363186801,71.509168412978 34.64764639715201,71.509168412978 " 
stroke="gray" 
stroke-width="1" 
fill="none"
id="line1" />

</g>
</g>
<g
inkscape:label="Slice 3"
inkscape:groupmode="layer" 
id="layer3" 
><g
id="g373">
  <polyline points="6.294177623544783E-15,64.11667489289601 6.294177623544783E-15,64.11667489289601 1.2588355247089566E-14,64.11667489289601 1.2588355247089566E-14,71.135810154388 6.294177623544783E-15,71.135810154388 6.294177623544783E-15,71.135810154388 6.294177623544783E-15,71.135810154388 6.294177623544783E-15,71.509168412978 6.294177623544783E-15,78.229617067598 6.294177623544783E-15,89.057006566708 1.5735444058861958E-15,89.057006566708 1.5735444058861958E-15,89.430364825298 1.5735444058861958E-15,94.35869383868601 1.5735444058861958E-15,97.94293312115 7.867722029430979E-16,94.35869383868601 7.867722029430979E-16,103.543307 0.0,103.543307 0.0,94.35869383868601 0.0,89.430364825298 0.0,89.057006566708 0.0,78.229617067598 0.0,71.509168412978 0.0,71.135810154388 0.0,64.116674892896 7.867722029430979E-16,64.116674892896 6.294177623544783E-15,64.11667489289601 " 
stroke="darkmagenta" 
stroke-width="1" 
fill="none"
id="line2" />

</g>
</g>
<g
inkscape:label="Slice 4"
inkscape:groupmode="layer" 
id="layer4" 
><g
id="g374">
  <polyline points="-35.021004655742004,94.35869383868601 -35.021004655742004,89.430364825298 -56.601112002244015,89.430364825298 -56.601112002244015,94.35869383868601 -56.601112002244015,103.543307 -35.021004655742004,103.543307 -35.021004655742004,94.35869383868601 " 
stroke="darkolivegreen" 
stroke-width="1" 
fill="none"
id="line3" />

</g>
</g>
<g
inkscape:label="Slice 5"
inkscape:groupmode="layer" 
id="layer5" 
></g>
</svg>