<?xml version="1.0" encoding="UTF-8" ?>
<svg    xmlns:dc="http://purl.org/dc/elements/1.1/" xmlns:cc="http://creativecommons.org/ns#" xmlns:rdf="http://www.w3.org/1999/02/22-rdf-syntax-ns#" xmlns:svg="http://www.w3.org/2000/svg" xmlns="http://www.w3.org/2000/svg" xmlns:sodipodi="http://sodipodi.sourceforge.net/DTD/sodipodi-0.dtd" xmlns:inkscape="http://www.inkscape.org/namespaces/inkscape" version="1.1"
 viewBox="0 0 100.0 100.0"
 id="svg2" 
 width="28.222222912098783mm"
 height="28.222222912098783mm">
 <defs  
  id="defs4" /> 
 <sodipodi:namedview 
  id="base" 
  pagecolor="#ffffff" 
  bordercolor="#666666" 
  borderopacity="1.0" 
 inkscape:pageopacity="0.0" 
 inkscape:pageshadow="2" 
  inkscape:document-units="mm" 
  inkscape:current-layer="layer1" 
 showgrid="false" 
  />
<g
inkscape:label="Slice 1"
inkscape:groupmode="layer" 
id="layer1" 
><g
id="g371">
  <polyline points="0.0,63.78740245999999 0.0,63.78740245999999 0.0,63.78740245999999 0.0,63.78740245999999 0.0,63.78740245999999 0.0,63.78740245999999 6.294177623544783E-15,63.78740245999999 6.294177623544783E-15,63.25590640999999 6.294177623544783E-15,56.66535538999999 0.0,56.665355389999995 0.0,56.665355389999995 -6.294177623544783E-15,56.66535539 -6.294177623544783E-15,63.25590641 -6.294177623544783E-15,63.787402459999996 0.0,63.78740245999999 " 
stroke="crimson" 
stroke-width="1" 
fill="none"
id="line0" />

</g>
</g>
<g
inkscape:label="Slice 2"
inkscape:groupmode="layer" 
id="layer2" 
><g
id="g372">
  <polyline points="-6.294177623544783E-15,78.24409502 -6.294177623544783E-15,89.08661444 -6.294177623544783E-15,89.40551207 -6.294177623544783E-15,94.40157494 -6.294177623544783E-15,103.64960621 0.0,103.64960621 0.0,103.64960621 0.0,103.64960621 0.0,103.64960621 0.0,103.64960621 0.0,103.64960621 6.294177623544783E-15,103.64960620999999 6.294177623544783E-15,94.40157493999999 6.294177623544783E-15,89.40551206999999 6.294177623544783E-15,89.08661443999999 6.294177623544783E-15,78.24409501999999 6.294177623544783E-15,71.54724479 6.294177623544783E-15,71.22834716 6.294177623544783E-15,64.10630008999999 0.0,64.10630008999999 0.0,64.10630008999999 0.0,64.10630008999999 0.0,64.10630008999999 0.0,64.10630008999999 0.0,64.10630008999999 -6.294177623544783E-15,64.10630008999999 -6.294177623544783E-15,71.22834716 -6.294177623544783E-15,71.54724479000001 -6.294177623544783E-15,78.24409502 " 
stroke="gray" 
stroke-width="1" 
fill="none"
id="line1" />

</g>
</g>
<g
inkscape:label="Slice 3"
inkscape:groupmode="layer" 
id="layer3" 
></g>
</svg>