<?xml version="1.0" encoding="UTF-8" ?>
<svg    xmlns:dc="http://purl.org/dc/elements/1.1/" xmlns:cc="http://creativecommons.org/ns#" xmlns:rdf="http://www.w3.org/1999/02/22-rdf-syntax-ns#" xmlns:svg="http://www.w3.org/2000/svg" xmlns="http://www.w3.org/2000/svg" xmlns:sodipodi="http://sodipodi.sourceforge.net/DTD/sodipodi-0.dtd" xmlns:inkscape="http://www.inkscape.org/namespaces/inkscape" version="1.1"
 viewBox="0 0 100.0 100.0"
 id="svg2" 
 width="28.222222912098783mm"
 height="28.222222912098783mm">
 <defs  
  id="defs4" /> 
 <sodipodi:namedview 
  id="base" 
  pagecolor="#ffffff" 
  bordercolor="#666666" 
  borderopacity="1.0" 
 inkscape:pageopacity="0.0" 
 inkscape:pageshadow="2" 
  inkscape:document-units="mm" 
  inkscape:current-layer="layer1" 
 showgrid="false" 
  />
<g
inkscape:label="Slice 1"
inkscape:groupmode="layer" 
id="layer1" 
><g
id="g371">
  <polyline points="0.0,71.509168412978 0.0,72.031869975004 0.0,78.229617067598 0.0,89.057006566708 0.0,89.05700656670801 0.0,94.73205209727601 0.0,103.54330700000001 0.0,103.54330700000001 0.0,94.73205209727601 0.0,89.05700656670801 0.0,78.22961706759801 0.0,72.03186997500401 0.0,71.509168412978 0.0,71.135810154388 0.0,64.11667489289601 0.0,63.743316634306005 0.0,63.220615072280005 0.0,56.649509721096 0.0,56.649509721096 0.0,56.649509721096 -1.3975881837479738E-30,56.649509721096 -1.3975881837479738E-30,63.22061507228 -1.3975881837479738E-30,63.743316634306 0.0,63.743316634306005 0.0,63.743316634306005 0.0,63.444630027434 0.0,63.295286723998004 0.0,63.220615072280005 0.0,63.220615072280005 0.0,63.220615072280005 0.0,63.220615072280005 0.0,63.295286723998004 0.0,63.444630027434 0.0,63.743316634306005 0.0,64.11667489289601 0.0,71.135810154388 0.0,71.509168412978 0.0,71.80785501985001 0.0,71.95719832328601 0.0,72.031869975004 0.0,72.031869975004 0.0,72.031869975004 0.0,71.95719832328601 0.0,71.80785501985001 0.0,71.509168412978 0.0,71.509168412978 " 
stroke="crimson" 
stroke-width="1" 
fill="none"
id="line0" />

</g>
</g>
<g
inkscape:label="Slice 2"
inkscape:groupmode="layer" 
id="layer2" 
><g
id="g372">
  <polyline points="0.0,78.229617067598 0.0,89.057006566708 0.0,89.430364825298 3.1470888117723916E-15,89.430364825298 0.0,94.35869383868601 0.0,94.35869383868601 0.0,89.430364825298 0.0,89.057006566708 0.0,78.229617067598 0.0,71.509168412978 0.0,71.509168412978 0.0,78.229617067598 " 
stroke="gray" 
stroke-width="1" 
fill="none"
id="line1" />

</g>
</g>
<g
inkscape:label="Slice 3"
inkscape:groupmode="layer" 
id="layer3" 
><g
id="g373">
  <polyline points="-1.3975881837479738E-30,64.116674892896 -1.3975881837479738E-30,71.135810154388 -1.3975881837479738E-30,71.509168412978 -1.3975881837479738E-30,78.229617067598 -1.3975881837479738E-30,89.057006566708 -1.3975881837479738E-30,89.430364825298 -1.3975881837479738E-30,94.35869383868601 -1.3975881837479738E-30,103.543307 3.9338610147154895E-16,103.543307 3.9338610147154895E-16,94.35869383868601 0.0,97.94293312115 0.0,94.35869383868601 0.0,89.430364825298 0.0,89.057006566708 0.0,89.057006566708 0.0,78.229617067598 0.0,71.509168412978 0.0,71.135810154388 0.0,71.135810154388 0.0,71.135810154388 0.0,71.135810154388 0.0,64.11667489289601 0.0,64.11667489289601 0.0,64.11667489289601 3.9338610147154895E-16,64.116674892896 -1.3975881837479738E-30,64.116674892896 " 
stroke="darkmagenta" 
stroke-width="1" 
fill="none"
id="line2" />

</g>
</g>
<g
inkscape:label="Slice 4"
inkscape:groupmode="layer" 
id="layer4" 
><g
id="g374">
  <polyline points="6.294177623544783E-15,103.54330700000001 6.294177623544783E-15,94.35869383868601 6.294177623544783E-15,89.430364825298 0.0,89.430364825298 0.0,94.35869383868601 0.0,103.543307 6.294177623544783E-15,103.54330700000001 " 
stroke="darkolivegreen" 
stroke-width="1" 
fill="none"
id="line3" />

</g>
</g>
<g
inkscape:label="Slice 5"
inkscape:groupmode="layer" 
id="layer5" 
></g>
</svg>