<?xml version="1.0" encoding="UTF-8" ?>
<svg    xmlns:dc="http://purl.org/dc/elements/1.1/" xmlns:cc="http://creativecommons.org/ns#" xmlns:rdf="http://www.w3.org/1999/02/22-rdf-syntax-ns#" xmlns:svg="http://www.w3.org/2000/svg" xmlns="http://www.w3.org/2000/svg" xmlns:sodipodi="http://sodipodi.sourceforge.net/DTD/sodipodi-0.dtd" xmlns:inkscape="http://www.inkscape.org/namespaces/inkscape" version="1.1"
 viewBox="0 0 100.0 100.0"
 id="svg2" 
 width="28.222222912098783mm"
 height="28.222222912098783mm">
 <defs  
  id="defs4" /> 
 <sodipodi:namedview 
  id="base" 
  pagecolor="#ffffff" 
  bordercolor="#666666" 
  borderopacity="1.0" 
 inkscape:pageopacity="0.0" 
 inkscape:pageshadow="2" 
  inkscape:document-units="mm" 
  inkscape:current-layer="layer1" 
 showgrid="false" 
  />
<g
inkscape:label="Slice 1"
inkscape:groupmode="layer" 
id="layer1" 
><g
id="g371">
  <polyline points="-53.25590421,71.22834716 -53.25590421,71.54724479000001 -53.25590421,72.07874084 -53.25590421,89.08661444 -23.91732225,89.08661444 23.91732225,89.08661444 53.14960499999999,89.08661444 53.14960499999999,72.07874084 53.14960499999999,71.22834716 53.14960499999999,71.54724479000001 23.91732225,71.54724479000001 21.047243580000004,71.54724479000001 20.30314911,71.22834716 18.28346412,71.54724479000001 14.988188610000002,71.22834716 11.480314679999994,71.22834716 -6.1653541800000005,71.54724479000001 -7.547243909999996,71.54724479000001 -11.586613889999999,71.22834716 -15.09448782,71.22834716 -20.40944832,71.22834716 -21.685038839999997,71.54724479000001 -23.91732225,71.54724479000001 -53.25590421,71.22834716 " 
stroke="crimson" 
stroke-width="1" 
fill="none"
id="line0" />

</g>
</g>
<g
inkscape:label="Slice 2"
inkscape:groupmode="layer" 
id="layer2" 
><g
id="g372">
  <polyline points="-23.91732225,63.787402459999996 18.28346412,63.787402459999996 18.814960169999996,63.787402459999996 21.047243580000004,63.787402459999996 21.57873963,63.787402459999996 23.91732225,63.787402459999996 53.14960499999999,63.787402459999996 53.14960499999999,63.25590641 53.14960499999999,56.66535539 23.91732225,56.66535539 -23.91732225,56.66535539 -53.25590421,56.66535539 -53.25590421,63.25590641 -53.25590421,63.787402459999996 -23.91732225,63.787402459999996 " 
stroke="gray" 
stroke-width="1" 
fill="none"
id="line1" />

</g>
</g>
<g
inkscape:label="Slice 3"
inkscape:groupmode="layer" 
id="layer3" 
><g
id="g373">
  <polyline points="53.14960499999999,64.10630008999999 40.07480217,64.10630008999999 20.30314911,64.10630008999999 14.988188610000002,64.10630008999999 11.480314679999994,64.10630008999999 -11.586613889999999,64.10630008999999 -15.09448782,64.10630008999999 -20.40944832,64.10630008999999 -40.18110138,64.10630008999999 -53.25590421,64.10630008999999 53.14960499999999,64.10630008999999 " 
stroke="darkmagenta" 
stroke-width="1" 
fill="none"
id="line2" />

</g>
</g>
<g
inkscape:label="Slice 4"
inkscape:groupmode="layer" 
id="layer4" 
><g
id="g374">
  <polyline points="53.14960499999999,103.64960621 53.14960499999999,94.40157494 53.14960499999999,89.40551207 -53.25590421,89.40551207 -53.25590421,94.40157494 -53.25590421,103.64960621 53.14960499999999,103.64960621 " 
stroke="darkolivegreen" 
stroke-width="1" 
fill="none"
id="line3" />

</g>
</g>
<g
inkscape:label="Slice 5"
inkscape:groupmode="layer" 
id="layer5" 
></g>
</svg>