<?xml version="1.0" encoding="UTF-8" ?>
<svg    xmlns:dc="http://purl.org/dc/elements/1.1/" xmlns:cc="http://creativecommons.org/ns#" xmlns:rdf="http://www.w3.org/1999/02/22-rdf-syntax-ns#" xmlns:svg="http://www.w3.org/2000/svg" xmlns="http://www.w3.org/2000/svg" xmlns:sodipodi="http://sodipodi.sourceforge.net/DTD/sodipodi-0.dtd" xmlns:inkscape="http://www.inkscape.org/namespaces/inkscape" version="1.1"
 viewBox="0 0 100.0 100.0"
 id="svg2" 
 width="28.222222912098783mm"
 height="28.222222912098783mm">
 <defs  
  id="defs4" /> 
 <sodipodi:namedview 
  id="base" 
  pagecolor="#ffffff" 
  bordercolor="#666666" 
  borderopacity="1.0" 
 inkscape:pageopacity="0.0" 
 inkscape:pageshadow="2" 
  inkscape:document-units="mm" 
  inkscape:current-layer="layer1" 
 showgrid="false" 
  />
<g
inkscape:label="Slice 1"
inkscape:groupmode="layer" 
id="layer1" 
><g
id="g371">
  <polyline points="-23.91732225,63.78740245999999 4.358267610000001,63.78740245999999 4.889763659999996,63.78740245999999 21.047243580000004,63.78740245999999 21.57873963,63.78740245999999 23.91732225,63.78740245999999 53.14960499999999,63.78740245999999 53.14960499999999,63.255906409999994 53.14960499999999,56.665355389999995 23.91732225,56.665355389999995 -23.91732225,56.665355389999995 -53.25590421,56.665355389999995 -53.25590421,63.255906409999994 -53.25590421,63.78740245999999 -23.91732225,63.78740245999999 " 
stroke="crimson" 
stroke-width="1" 
fill="none"
id="line0" />

</g>
</g>
<g
inkscape:label="Slice 2"
inkscape:groupmode="layer" 
id="layer2" 
><g
id="g372">
  <polyline points="-53.25590421,78.24409501999999 -53.25590421,89.08661444 -53.25590421,89.40551207 -53.25590421,94.40157494 -53.25590421,103.64960621 -20.40944832,103.64960621 -15.09448782,103.64960621 -11.586613889999999,103.64960621 11.480314679999994,103.64960621 14.988188610000002,103.64960621 20.30314911,103.64960621 53.14960499999999,103.64960621 53.14960499999999,94.40157494 53.14960499999999,89.40551207 53.14960499999999,89.08661444 53.14960499999999,78.24409501999999 53.14960499999999,71.54724479 53.14960499999999,71.22834716 53.14960499999999,64.10630008999999 20.30314911,64.10630008999999 14.988188610000002,64.10630008999999 11.480314679999994,64.10630008999999 -11.586613889999999,64.10630008999999 -15.09448782,64.10630008999999 -20.40944832,64.10630008999999 -53.25590421,64.10630008999999 -53.25590421,71.22834716 -53.25590421,71.54724479 -53.25590421,78.24409501999999 " 
stroke="gray" 
stroke-width="1" 
fill="none"
id="line1" />

</g>
</g>
<g
inkscape:label="Slice 3"
inkscape:groupmode="layer" 
id="layer3" 
></g>
</svg>