<?xml version="1.0" encoding="UTF-8" ?>
<svg    xmlns:dc="http://purl.org/dc/elements/1.1/" xmlns:cc="http://creativecommons.org/ns#" xmlns:rdf="http://www.w3.org/1999/02/22-rdf-syntax-ns#" xmlns:svg="http://www.w3.org/2000/svg" xmlns="http://www.w3.org/2000/svg" xmlns:sodipodi="http://sodipodi.sourceforge.net/DTD/sodipodi-0.dtd" xmlns:inkscape="http://www.inkscape.org/namespaces/inkscape" version="1.1"
 viewBox="0 0 100.0 100.0"
 id="svg2" 
 width="28.222222912098783mm"
 height="28.222222912098783mm">
 <defs  
  id="defs4" /> 
 <sodipodi:namedview 
  id="base" 
  pagecolor="#ffffff" 
  bordercolor="#666666" 
  borderopacity="1.0" 
 inkscape:pageopacity="0.0" 
 inkscape:pageshadow="2" 
  inkscape:document-units="mm" 
  inkscape:current-layer="layer1" 
 showgrid="false" 
  />
<g
inkscape:label="Slice 1"
inkscape:groupmode="layer" 
id="layer1" 
><g
id="g371">
  <polyline points="-41.51743835520801,71.80785501985 -41.81612496208001,71.957198323286 -42.114811568952014,72.031869975004 -56.97447026083401,72.031869975004 -63.39623230858202,72.031869975004 -63.69491891545401,71.957198323286 -63.99360552232602,71.80785501985 -64.142948825762,71.509168412978 -64.29229212919802,71.135810154388 -64.29229212919802,64.116674892896 -64.142948825762,63.743316634306 -63.99360552232602,63.444630027433995 -63.69491891545401,63.295286723998 -63.39623230858202,63.22061507228 -56.97447026083401,63.22061507228 -42.786856434414005,63.22061507228 -42.114811568952014,63.22061507228 -41.81612496208001,63.295286723998 -41.51743835520801,63.444630027433995 -41.36809505177201,63.743316634306 -40.84539348974601,63.743316634306 0.0,63.743316634306 0.0,63.22061507228 0.0,56.649509721096 -42.786856434414005,56.649509721096 -56.97447026083401,56.649509721096 -74.67165171800002,56.649509721096 -74.67165171800002,63.22061507228 -74.67165171800002,63.743316634306 -74.67165171800002,64.116674892896 -74.67165171800002,71.135810154388 -74.67165171800002,71.509168412978 -74.67165171800002,72.031869975004 -74.67165171800002,78.229617067598 -74.67165171800002,89.057006566708 -74.67165171800002,94.732052097276 -62.873530746556014,103.543307 -56.97447026083401,103.543307 -56.97447026083401,94.732052097276 -56.97447026083401,89.057006566708 -35.021004655742004,89.057006566708 -35.021004655742004,78.229617067598 -35.021004655742004,72.031869975004 -35.021004655742004,71.509168412978 -41.36809505177201,71.509168412978 -41.51743835520801,71.80785501985 " 
stroke="crimson" 
stroke-width="1" 
fill="none"
id="line0" />

</g>
</g>
<g
inkscape:label="Slice 2"
inkscape:groupmode="layer" 
id="layer2" 
><g
id="g372">
  <polyline points="-34.64764639715201,71.509168412978 -34.64764639715201,78.229617067598 -34.64764639715201,89.057006566708 -34.64764639715201,89.430364825298 -34.64764639715201,94.35869383868601 -31.81012363186801,94.35869383868601 -26.50843635989001,89.430364825298 -31.81012363186801,89.430364825298 -31.81012363186801,89.057006566708 -31.81012363186801,78.229617067598 -31.81012363186801,71.509168412978 -34.64764639715201,71.509168412978 " 
stroke="gray" 
stroke-width="1" 
fill="none"
id="line1" />

</g>
</g>
<g
inkscape:label="Slice 3"
inkscape:groupmode="layer" 
id="layer3" 
><g
id="g373">
  <polyline points="-42.114811568952014,64.116674892896 -42.786856434414005,64.116674892896 -63.39623230858202,64.116674892896 -63.39623230858202,71.135810154388 -42.786856434414005,71.135810154388 -42.114811568952014,71.135810154388 -31.51143702499601,71.135810154388 -31.51143702499601,71.509168412978 -31.51143702499601,78.229617067598 -3.5842392824639937,78.229617067598 -3.5842392824639937,89.057006566708 -8.885926554441996,89.057006566708 -8.885926554441996,89.430364825298 -8.885926554441996,94.35869383868601 -8.885926554441996,97.94293312115 -3.5842392824639937,94.35869383868601 -3.5842392824639937,103.543307 0.0,103.543307 0.0,94.35869383868601 0.0,89.430364825298 0.0,89.057006566708 0.0,78.229617067598 0.0,71.509168412978 0.0,71.135810154388 0.0,64.116674892896 -3.5842392824639937,64.116674892896 -42.114811568952014,64.116674892896 " 
stroke="darkmagenta" 
stroke-width="1" 
fill="none"
id="line2" />

</g>
</g>
<g
inkscape:label="Slice 4"
inkscape:groupmode="layer" 
id="layer4" 
><g
id="g374">
  <polyline points="-35.021004655742004,94.35869383868601 -35.021004655742004,89.430364825298 -56.601112002244015,89.430364825298 -56.601112002244015,94.35869383868601 -56.601112002244015,103.543307 -35.021004655742004,103.543307 -35.021004655742004,94.35869383868601 " 
stroke="darkolivegreen" 
stroke-width="1" 
fill="none"
id="line3" />

</g>
</g>
<g
inkscape:label="Slice 5"
inkscape:groupmode="layer" 
id="layer5" 
></g>
</svg>