<?xml version="1.0" encoding="UTF-8" ?>
<svg    xmlns:dc="http://purl.org/dc/elements/1.1/" xmlns:cc="http://creativecommons.org/ns#" xmlns:rdf="http://www.w3.org/1999/02/22-rdf-syntax-ns#" xmlns:svg="http://www.w3.org/2000/svg" xmlns="http://www.w3.org/2000/svg" xmlns:sodipodi="http://sodipodi.sourceforge.net/DTD/sodipodi-0.dtd" xmlns:inkscape="http://www.inkscape.org/namespaces/inkscape" version="1.1"
 viewBox="0 0 100.0 100.0"
 id="svg2" 
 width="28.222222912098783mm"
 height="28.222222912098783mm">
 <defs  
  id="defs4" /> 
 <sodipodi:namedview 
  id="base" 
  pagecolor="#ffffff" 
  bordercolor="#666666" 
  borderopacity="1.0" 
 inkscape:pageopacity="0.0" 
 inkscape:pageshadow="2" 
  inkscape:document-units="mm" 
  inkscape:current-layer="layer1" 
 showgrid="false" 
  />
<g
inkscape:label="Slice 1"
inkscape:groupmode="layer" 
id="layer1" 
><g
id="g371">
  <polyline points="-23.91732225,63.7165599420467 5.102362080000004,63.7165599420467 5.633858129999999,63.7165599420467 21.047243580000004,63.7165599420467 21.57873963,63.7165599420467 23.91732225,63.7165599420467 53.14960499999999,63.7165599420467 53.14960499999999,63.185063892046706 53.14960499999999,56.7008120820467 23.91732225,56.7008120820467 -23.91732225,56.7008120820467 -53.25590421,56.7008120820467 -53.25590421,63.185063892046706 -53.25590421,63.7165599420467 -23.91732225,63.7165599420467 " 
stroke="crimson" 
stroke-width="1" 
fill="none"
id="line0" />

</g>
</g>
<g
inkscape:label="Slice 2"
inkscape:groupmode="layer" 
id="layer2" 
><g
id="g372">
  <polyline points="-53.25590421,78.2795517120467 -53.25590421,89.0157719220467 -53.25590421,89.44096876204671 -53.25590421,94.33073242204671 -20.40944832,94.33073242204671 -15.09448782,94.33073242204671 -11.586613889999999,94.33073242204671 11.480314679999994,94.33073242204671 14.988188610000002,94.33073242204671 20.30314911,94.33073242204671 53.14960499999999,94.33073242204671 53.14960499999999,89.44096876204671 53.14960499999999,89.0157719220467 53.14960499999999,78.2795517120467 53.14960499999999,71.5827014820467 53.14960499999999,71.1575046420467 53.14960499999999,64.14175678204671 20.30314911,64.14175678204671 14.988188610000002,64.14175678204671 11.480314679999994,64.14175678204671 -11.586613889999999,64.14175678204671 -15.09448782,64.14175678204671 -20.40944832,64.14175678204671 -53.25590421,64.14175678204671 -53.25590421,71.1575046420467 -53.25590421,71.5827014820467 -53.25590421,78.2795517120467 " 
stroke="gray" 
stroke-width="1" 
fill="none"
id="line1" />

</g>
</g>
<g
inkscape:label="Slice 3"
inkscape:groupmode="layer" 
id="layer3" 
></g>
</svg>